<?xml version="1.0" standalone="no"?>
<!DOCTYPE svg PUBLIC "-//W3C//DTD SVG 20010904//EN"
 "http://www.w3.org/TR/2001/REC-SVG-20010904/DTD/svg10.dtd">
<svg version="1.0" xmlns="http://www.w3.org/2000/svg"
 width="600.000000pt" height="600.000000pt" viewBox="0 0 600.000000 600.000000"
 preserveAspectRatio="xMidYMid meet">
<metadata>
Created by potrace 1.14, written by Peter Selinger 2001-2017
</metadata>
<g transform="translate(0.000000,600.000000) scale(0.100000,-0.100000)"
fill="#000000" stroke="none">
<path d="M0 3000 l0 -3000 3000 0 3000 0 0 3000 0 3000 -3000 0 -3000 0 0
-3000z m3135 2080 c-27 -11 -52 -20 -55 -19 -11 2 76 38 90 38 8 0 -7 -9 -35
-19z m-65 -25 c0 -2 -15 -12 -32 -20 l-33 -16 25 20 c24 20 40 26 40 16z m-79
-59 c-7 -8 -10 -20 -6 -26 3 -5 1 -10 -4 -10 -6 0 -11 5 -11 11 0 16 21 51 27
45 3 -3 0 -12 -6 -20z m14 -114 c-10 -10 -25 21 -24 48 1 23 2 22 15 -9 8 -18
12 -36 9 -39z m-430 18 c-3 -5 -11 -10 -16 -10 -6 0 -7 5 -4 10 3 6 11 10 16
10 6 0 7 -4 4 -10z m70 -9 c3 -5 1 -12 -5 -16 -5 -3 -10 1 -10 9 0 18 6 21 15
7z m602 -237 c5 -13 7 -13 14 -2 6 10 11 9 23 -7 8 -11 11 -24 6 -30 -4 -5
-11 -32 -15 -59 -6 -38 -5 -47 5 -41 9 6 9 3 1 -14 -8 -13 -8 -27 -2 -38 7
-15 12 -85 21 -276 0 -4 4 -6 8 -5 4 2 27 -17 50 -41 24 -23 46 -40 50 -36 4
4 -1 12 -11 19 -10 6 -25 16 -34 21 -9 7 -20 48 -30 115 -13 87 -14 120 -4
194 12 93 21 117 54 154 29 31 82 30 113 -3 14 -15 29 -22 38 -19 12 5 16 0
16 -19 0 -13 3 -40 7 -58 6 -31 5 -33 -10 -21 -14 12 -20 10 -42 -14 -55 -59
-66 -203 -22 -289 27 -53 61 -95 78 -95 5 0 14 -11 19 -25 6 -16 17 -25 32
-25 21 -1 22 -1 5 -11 -11 -6 -51 -9 -93 -7 l-73 3 6 -25 c3 -14 7 -27 9 -29
2 -2 -4 -10 -12 -18 -8 -8 -11 -20 -7 -26 4 -8 1 -7 -9 1 -11 9 -18 10 -23 3
-3 -6 -15 -16 -26 -22 -20 -10 -20 -10 -2 17 10 16 12 25 6 21 -8 -5 -13 -3
-13 4 0 7 -3 10 -6 6 -3 -3 -6 -9 -6 -14 0 -33 -67 -45 -106 -17 -56 39 -67
116 -25 171 24 32 25 35 6 23 -33 -21 -47 -55 -46 -110 0 -28 -4 -50 -9 -50
-5 0 -7 -4 -4 -9 6 -10 -25 -20 -64 -22 l-25 -1 27 -9 c18 -7 25 -15 21 -25
-4 -10 2 -17 16 -21 11 -3 21 -9 21 -14 0 -5 -12 -6 -27 -2 -49 13 -261 9
-274 -4 -7 -7 -20 -13 -28 -13 -24 0 -81 -61 -81 -88 0 -13 9 -38 21 -55 20
-30 19 -30 -15 5 -31 33 -36 44 -36 86 0 26 5 53 12 60 9 9 7 12 -9 12 -35 0
-34 13 2 72 36 60 36 71 -1 62 -13 -4 -31 -4 -39 0 -12 4 -13 10 -3 33 7 15
23 42 35 59 13 17 23 33 23 36 0 2 -18 24 -40 48 -43 46 -48 61 -26 79 18 15
159 23 192 11 15 -6 28 -9 30 -8 1 2 -4 30 -12 63 -34 148 -37 213 -10 273 25
55 66 75 132 63 27 -5 52 -7 56 -5 5 3 8 0 8 -6 0 -6 5 -8 12 -4 7 4 24 8 38
9 14 1 36 6 50 13 35 15 50 14 57 -4z m441 -47 c17 -18 34 -46 38 -63 3 -17
19 -46 35 -65 18 -21 27 -41 23 -52 -3 -10 1 -19 11 -23 16 -7 55 -73 55 -96
1 -19 36 -58 52 -58 8 1 3 9 -11 20 -13 11 -18 20 -13 20 6 0 14 -5 18 -11 4
-8 9 -7 16 2 8 11 9 10 4 -3 -3 -10 -1 -20 4 -23 16 -10 11 -23 -11 -30 -14
-5 -19 -13 -16 -26 3 -12 -2 -20 -14 -24 -11 -4 -17 -10 -14 -15 3 -5 -1 -20
-10 -34 -10 -15 -12 -27 -6 -30 6 -4 1 -22 -11 -46 -21 -38 -44 -49 -83 -40
-5 1 -19 3 -30 4 -11 1 -19 7 -18 13 2 8 -9 10 -32 6 -30 -5 -34 -3 -29 10 3
9 21 19 39 23 42 7 48 27 45 149 -4 188 -17 243 -79 345 -34 56 -37 66 -22 72
25 10 25 10 59 -25z m732 -47 c0 -5 -7 -10 -16 -10 -8 0 -12 5 -9 10 3 6 10
10 16 10 5 0 9 -4 9 -10z m-12 -144 c91 -46 141 -80 131 -90 -3 -4 -35 0 -70
7 -53 11 -67 11 -77 1 -17 -19 -15 -21 13 -21 28 0 125 -56 157 -90 l21 -22
-32 9 c-17 5 -31 7 -31 4 0 -3 -10 1 -22 8 -13 7 -25 12 -28 13 -26 2 -112 56
-125 78 -17 28 -13 32 29 27 35 -3 6 17 -51 35 -82 27 -87 32 -62 64 23 28 52
44 57 29 2 -5 43 -28 90 -52z m-548 -36 c0 -5 -2 -10 -4 -10 -3 0 -8 5 -11 10
-3 6 -1 10 4 10 6 0 11 -4 11 -10z m29 -74 c-3 -3 -11 5 -18 17 -13 21 -12 21
5 5 10 -10 16 -20 13 -22z m160 16 c14 -27 -3 -50 -26 -36 -18 11 -29 11 -70
-2 -14 -4 -23 -2 -23 5 0 6 6 11 14 11 8 0 22 7 31 16 8 9 22 13 30 10 8 -3
15 -1 15 4 0 17 19 11 29 -8z m-1236 -39 c-7 -2 -21 -2 -30 0 -10 3 -4 5 12 5
17 0 24 -2 18 -5z m1215 -15 c13 -13 16 -48 4 -48 -14 0 -32 23 -32 42 0 21
11 23 28 6z m347 -49 c36 -15 33 -14 68 -23 15 -5 27 -12 27 -17 0 -5 17 -16
38 -25 20 -9 31 -18 25 -21 -7 -2 -40 9 -73 26 -33 17 -76 31 -95 31 -24 0
-35 5 -35 15 0 8 -5 15 -11 15 -5 0 -8 4 -4 10 6 9 9 9 60 -11z m-758 -21 c-3
-8 -6 -5 -6 6 -1 11 2 17 5 13 3 -3 4 -12 1 -19z m808 -65 c58 -26 105 -50
105 -53 0 -8 -67 3 -138 23 -48 14 -92 47 -92 69 0 14 17 9 125 -39z m-110 -3
c3 -5 -1 -10 -9 -10 -8 0 -18 5 -21 10 -3 6 1 10 9 10 8 0 18 -4 21 -10z m-40
-30 c-15 -7 -16 -9 -4 -9 21 -1 52 -48 45 -67 -3 -8 -19 -14 -38 -13 -31 0
-32 1 -10 11 29 14 28 20 -10 48 -29 21 -30 24 -12 31 27 11 54 10 29 -1z
m-684 -296 c44 -4 104 -2 144 5 81 14 111 1 52 -24 -47 -20 -153 -19 -231 1
-60 16 -119 42 -66 30 14 -4 59 -9 101 -12z m-442 -15 c65 -23 33 -35 -118
-44 -91 -6 -152 -22 -165 -44 -12 -19 -26 -12 -26 12 0 26 32 61 70 76 34 13
200 14 239 0z m-79 -139 c0 -5 -4 -10 -9 -10 -6 0 -13 5 -16 10 -3 6 1 10 9
10 9 0 16 -4 16 -10z m682 -34 c-14 -39 -19 -44 -48 -44 -34 0 -101 -43 -136
-88 -12 -15 -49 -39 -82 -54 -55 -25 -63 -27 -88 -14 -30 16 -51 19 -28 4 8
-5 11 -12 8 -16 -4 -3 -14 1 -23 10 -9 9 -12 16 -6 16 5 0 10 8 10 18 0 33 9
87 22 122 6 19 13 41 15 47 2 9 10 10 26 4 51 -21 64 -24 78 -22 8 2 29 -14
48 -36 18 -21 30 -30 26 -20 -3 9 -3 24 0 34 6 14 8 14 22 -3 9 -10 13 -14 11
-9 -3 6 0 21 5 35 6 18 11 21 17 12 6 -11 12 -10 26 5 15 14 70 36 106 42 4 1
-1 -19 -9 -43z m-472 -206 c-11 -22 -21 -40 -23 -40 -1 0 -2 11 -2 24 0 13 3
22 7 20 4 -3 12 5 18 16 20 38 20 20 0 -20z m-79 -47 c-17 -21 -27 -41 -23
-47 5 -6 8 -17 8 -25 -1 -20 -26 -26 -26 -7 0 9 5 16 11 16 5 0 7 5 3 11 -4 8
-9 7 -15 -2 -12 -20 -11 -36 5 -51 11 -12 11 -17 -4 -36 -10 -11 -21 -18 -24
-14 -4 3 -4 -1 -1 -10 4 -9 2 -19 -3 -22 -5 -3 -12 3 -15 14 -3 13 2 25 16 35
15 11 18 18 10 26 -8 8 -15 4 -27 -12 -9 -13 -16 -18 -16 -12 0 7 5 15 10 18
6 4 16 21 24 38 12 29 82 117 93 117 2 0 -9 -17 -26 -37z m215 -10 c-10 -10
-19 5 -10 18 6 11 8 11 12 0 2 -7 1 -15 -2 -18z m-32 -15 c-10 -15 -32 -43
-62 -77 l-24 -26 23 35 c23 36 60 80 66 80 2 0 1 -5 -3 -12z m-282 -157 c4
-15 2 -29 -7 -37 -22 -22 -26 -17 -20 24 6 35 5 36 -9 18 -23 -29 -31 -85 -16
-110 12 -20 12 -20 -7 -3 -11 9 -25 17 -31 17 -7 0 -12 5 -12 11 0 5 4 8 9 5
5 -3 12 6 16 21 9 36 43 83 58 80 7 -1 15 -13 19 -26z m-35 -93 c-3 -7 -5 -2
-5 12 0 14 2 19 5 13 2 -7 2 -19 0 -25z m139 -47 c-17 -43 -33 -77 -35 -75
-10 9 49 154 63 154 2 0 -11 -35 -28 -79z m-208 14 c-1 -13 -4 -22 -7 -19 -2
2 -16 -6 -30 -18 -23 -21 -22 -20 5 19 16 24 30 43 31 43 2 0 2 -11 1 -25z
m16 -152 c-5 -79 -2 -112 15 -173 11 -41 18 -76 16 -78 -1 -2 -15 32 -29 75
-22 66 -25 90 -20 153 6 81 12 120 19 120 2 0 2 -44 -1 -97z m-89 57 c-9 -16
-20 -30 -26 -30 -5 0 0 14 13 30 12 17 23 30 25 30 2 0 -3 -13 -12 -30z m240
-40 c-4 -12 -9 -19 -12 -17 -3 3 -2 15 2 27 4 12 9 19 12 17 3 -3 2 -15 -2
-27z m-291 -65 c-4 -8 -10 -15 -15 -15 -4 0 -6 7 -3 15 4 8 10 15 15 15 4 0 6
-7 3 -15z m263 -27 c-3 -7 -5 -2 -5 12 0 14 2 19 5 13 2 -7 2 -19 0 -25z
m-293 -28 c-6 -6 -10 -2 -11 12 -2 16 1 18 10 9 7 -7 8 -14 1 -21z m-54 -50
c-12 -16 -24 -30 -26 -30 -3 0 4 14 16 30 12 17 24 30 26 30 3 0 -4 -13 -16
-30z m-37 -60 c-10 -11 -26 -29 -35 -40 -10 -11 -18 -29 -18 -39 0 -11 -4 -23
-10 -26 -5 -3 -10 2 -10 13 0 21 65 112 80 112 6 0 2 -9 -7 -20z m1581 -50
c43 -18 45 -21 36 -45 -14 -38 -12 -65 5 -65 8 0 15 -7 15 -15 0 -8 7 -15 15
-15 17 0 35 -30 35 -58 0 -11 7 -25 15 -32 8 -7 13 -25 11 -45 -2 -27 2 -36
21 -44 16 -8 23 -19 23 -40 0 -16 5 -33 11 -37 6 -3 9 -17 6 -31 -3 -17 3 -32
19 -48 13 -13 24 -30 24 -38 0 -7 5 -18 11 -24 8 -8 5 -13 -10 -18 -27 -8 -26
-19 5 -61 22 -28 23 -34 10 -34 -14 0 -16 -9 -12 -66 4 -55 3 -65 -10 -60 -9
3 -12 1 -9 -4 3 -6 2 -10 -4 -10 -5 0 -11 6 -14 13 -3 9 -7 9 -17 0 -11 -10
-8 -19 15 -49 25 -33 26 -37 11 -46 -21 -12 -13 -40 21 -74 14 -14 22 -28 19
-32 -4 -3 -13 4 -22 16 -21 30 -30 28 -37 -10 -4 -18 -9 -42 -12 -54 -5 -17 0
-24 24 -34 34 -14 41 -30 14 -30 -10 0 -31 -7 -46 -15 -26 -13 -30 -13 -45 2
-9 9 -17 28 -18 42 -1 14 -3 29 -3 34 -1 4 -7 7 -13 7 -37 1 -38 16 -4 81 68
131 88 203 89 319 0 196 -34 292 -143 400 -59 58 -159 120 -232 144 -20 6 -24
26 -6 26 7 0 23 11 38 25 21 20 64 37 112 44 3 1 27 -8 52 -19z m-2328 -252
c36 -32 131 -169 162 -235 11 -24 13 -36 5 -44 -8 -8 -14 -7 -22 3 -19 20 -97
143 -104 162 -4 10 -16 20 -27 23 -11 3 -20 14 -20 24 0 10 -6 22 -12 26 -25
16 -50 52 -43 62 10 17 22 13 61 -21z m2048 -14 c8 -20 8 -59 0 -66 -3 -3 -14
-4 -25 -1 -14 4 -19 14 -19 37 0 18 3 36 7 39 11 12 31 7 37 -9z m-3381 -88
l18 -37 76 2 76 2 19 -69 c11 -38 24 -84 30 -103 9 -29 8 -36 -8 -48 -10 -7
-37 -13 -61 -13 -25 0 -43 -5 -43 -11 0 -7 19 -9 58 -5 43 4 212 14 312 18 30
1 40 -5 40 -24 0 -27 -10 -43 -30 -51 -16 -6 147 0 218 9 40 5 53 16 33 28 -5
3 -11 15 -14 26 -4 16 -2 18 13 10 20 -10 33 -37 25 -50 -3 -5 0 -12 6 -16 8
-4 9 -3 5 4 -4 7 -3 12 3 12 6 0 15 -8 20 -18 6 -11 35 -36 65 -57 l55 -38 88
9 88 9 27 50 c15 28 29 53 30 57 2 5 86 15 188 23 102 8 232 20 289 26 73 8
106 8 114 0 16 -16 4 -18 -268 -36 -332 -22 -308 -16 -346 -81 -17 -30 -34
-54 -37 -54 -48 -3 -150 -12 -160 -16 -8 -2 -26 4 -40 14 -15 10 -53 33 -85
51 l-58 32 -117 -11 c-186 -18 -464 -40 -498 -40 l-31 0 -69 208 c-38 114 -71
213 -72 221 -8 28 24 3 41 -33z m2309 14 c28 -21 49 -87 43 -134 -3 -21 -1
-26 8 -17 6 6 21 11 32 11 12 0 25 3 29 7 11 11 149 11 182 -1 17 -6 52 -28
77 -50 37 -31 48 -47 56 -88 15 -67 14 -78 -6 -85 -10 -4 -21 -11 -25 -17 -5
-7 -8 -4 -8 7 0 9 6 17 13 17 8 0 7 4 -3 10 -21 14 -30 12 -30 -5 0 -12 -28
-35 -42 -35 -2 0 -2 16 0 35 5 41 -10 46 -26 9 -7 -14 -17 -22 -23 -19 -7 5
-7 11 0 19 6 7 8 16 4 19 -12 13 -22 7 -29 -15 l-7 -23 -8 23 c-12 31 -26 28
-34 -7 -6 -30 -30 -48 -40 -31 -9 15 -35 12 -29 -3 3 -8 -11 -20 -36 -31 -46
-20 -64 -47 -56 -82 5 -17 2 -24 -9 -24 -8 0 -15 -7 -15 -15 0 -9 -7 -26 -15
-38 -13 -20 -22 -51 -24 -83 -2 -23 -91 -3 -91 20 0 7 -14 25 -30 41 -24 23
-30 37 -28 60 2 16 6 28 9 25 11 -10 37 21 43 51 3 17 19 47 36 67 36 43 37
52 9 45 -19 -5 -20 -4 -10 16 7 11 8 21 4 21 -4 0 6 9 23 19 18 11 35 25 40
32 10 17 13 69 3 69 -5 0 -6 6 -3 14 3 8 -3 16 -15 19 -24 6 -25 3 -11 -23 12
-22 -27 -104 -50 -106 -8 -1 -28 -2 -45 -3 -28 -2 -29 -3 -7 -11 15 -6 22 -18
23 -37 2 -52 -3 -78 -19 -103 -9 -14 -21 -34 -27 -45 -6 -10 -21 -22 -35 -25
-20 -5 -25 -12 -23 -33 1 -15 -3 -27 -8 -27 -6 0 -7 -5 -4 -10 3 -6 -2 -13
-11 -17 -10 -4 -19 -2 -22 5 -6 18 -21 14 -18 -5 2 -9 11 -20 22 -25 12 -5 8
-6 -13 -2 -20 3 -33 1 -33 -5 0 -5 -13 -8 -30 -6 -16 2 -30 0 -30 -5 0 -5 10
-10 23 -12 43 -6 3 -87 -44 -88 -25 0 -28 -5 -47 -92 -11 -51 -23 -109 -26
-128 -3 -19 -9 -46 -12 -60 -3 -14 -7 -36 -10 -50 -42 -208 -83 -348 -69 -235
3 28 9 70 11 95 3 25 17 90 30 145 24 95 64 297 64 321 0 7 -26 29 -58 50 -57
36 -92 79 -92 112 0 37 -15 44 -48 25 -32 -18 -55 -12 -34 9 7 7 12 22 12 33
0 17 13 28 60 48 59 25 60 26 60 66 0 23 4 41 9 41 4 0 11 17 14 38 10 66 15
79 54 152 34 63 45 75 98 105 61 33 106 45 199 50 28 2 62 8 76 13 39 17 75
14 102 -8z m-1515 -84 c4 -4 -1 -14 -11 -22 -34 -24 -6 -39 68 -36 60 3 65 5
56 22 -6 10 -20 20 -32 22 -12 2 -23 9 -26 16 -3 8 12 12 52 12 50 0 75 -12
45 -22 -6 -2 0 -26 16 -61 15 -31 24 -61 21 -66 -3 -5 4 -7 16 -5 21 4 22 4 3
-5 -27 -13 -85 -13 -85 -1 0 6 9 10 20 10 17 0 18 3 8 26 -12 25 -14 26 -78
19 -36 -4 -66 -8 -68 -10 -9 -9 21 -45 38 -45 10 0 21 -4 24 -9 9 -14 -94 -25
-107 -12 -8 8 -9 14 -1 19 18 12 -33 112 -57 112 -20 0 -28 35 -9 42 19 6 99
2 107 -6z m287 -202 c-15 -31 -30 -51 -32 -46 -4 14 48 116 55 108 3 -3 -7
-31 -23 -62z m-91 -88 c-29 -7 -59 -19 -68 -26 -20 -17 -19 -1 2 22 12 13 30
18 67 17 l51 -1 -52 -12z m-131 -75 c33 -19 36 -31 7 -31 -23 0 -139 66 -139
79 0 20 17 19 59 -6 25 -15 58 -34 73 -42z m168 55 c0 -3 -4 -8 -10 -11 -5 -3
-10 -1 -10 4 0 6 5 11 10 11 6 0 10 -2 10 -4z m-1171 -356 c-6 -10 -9 -2 -9
25 -1 22 -3 48 -5 57 -5 27 -8 136 -5 208 2 44 7 10 15 -105 6 -93 8 -177 4
-185z m203 185 c-36 -74 -67 -133 -69 -131 -2 1 20 52 48 112 28 60 55 119 60
132 5 12 12 22 17 22 5 0 -20 -61 -56 -135z m2531 78 c-7 -2 -21 -2 -30 0 -10
3 -4 5 12 5 17 0 24 -2 18 -5z m165 0 c-10 -2 -26 -2 -35 0 -10 3 -2 5 17 5
19 0 27 -2 18 -5z m-45 -60 c-18 -2 -48 -2 -65 0 -18 2 -4 4 32 4 36 0 50 -2
33 -4z m1295 -25 c53 -62 77 -109 55 -107 -10 0 -93 116 -93 129 0 17 10 11
38 -22z m-2402 0 c4 -6 2 -14 -4 -16 -7 -2 -17 -12 -23 -23 -5 -11 -6 -18 -2
-17 14 5 51 -27 54 -47 2 -11 -4 -31 -14 -45 -23 -33 -22 -38 11 -34 19 3 16
0 -13 -10 -22 -8 -48 -15 -57 -15 -10 -1 -18 -6 -18 -12 0 -6 12 -8 30 -5 17
3 43 9 59 12 l30 5 -11 -35 c-11 -34 -28 -49 -28 -25 0 6 -10 9 -22 7 -17 -2
-23 -10 -23 -29 0 -16 -4 -25 -11 -22 -6 2 -11 14 -10 26 1 20 -39 62 -82 86
-13 8 -6 41 9 41 4 0 6 -7 2 -15 -3 -9 2 -22 13 -30 26 -20 34 -18 34 5 0 11
-5 20 -11 20 -7 0 -9 10 -4 27 5 23 4 25 -9 14 -19 -16 -20 -8 -5 20 6 12 17
18 25 15 10 -4 14 0 12 12 -2 12 3 16 15 14 15 -3 16 0 6 16 -10 16 -9 25 4
46 19 28 32 33 43 14z m34 -39 c0 -6 -4 -7 -10 -4 -5 3 -10 11 -10 16 0 6 5 7
10 4 6 -3 10 -11 10 -16z m970 -15 c0 -8 -5 -12 -10 -9 -6 4 -8 11 -5 16 9 14
15 11 15 -7z m195 -89 c28 -36 83 -107 124 -158 55 -69 70 -93 57 -95 -21 -4
-20 -21 2 -38 9 -7 12 -14 5 -14 -6 0 -14 4 -18 10 -3 5 -12 7 -19 4 -8 -3
-18 7 -26 25 -7 17 -28 47 -47 68 l-36 37 5 -38 c4 -34 3 -36 -9 -20 -9 12
-12 31 -8 52 3 17 2 32 -3 32 -5 0 -18 19 -30 43 -12 23 -31 53 -43 67 -22 27
-22 26 -3 -40 8 -30 -9 -24 -28 11 -12 21 -18 52 -18 97 l0 65 23 -21 c12 -12
45 -51 72 -87z m-615 43 c0 -15 -27 -8 -44 11 -17 18 -17 19 1 23 17 3 42 -17
43 -34z m2111 -101 c-5 -4 -31 15 -60 43 -28 27 -48 50 -45 50 4 0 1 6 -5 13
-6 8 -8 17 -4 21 10 10 123 -117 114 -127z m-221 23 c24 -22 38 -40 32 -40 -5
0 -18 -3 -26 -6 -12 -5 -16 -1 -14 17 3 21 -1 24 -29 24 -41 1 -51 12 -27 30
10 8 19 15 20 15 0 0 20 -18 44 -40z m-2340 -60 c0 -89 3 -97 35 -90 16 3 -28
-35 -50 -44 -15 -5 -17 -4 -8 5 8 8 10 42 6 115 -4 75 -3 104 5 104 8 0 12
-29 12 -90z m1990 64 c12 -30 13 -44 3 -44 -8 0 -33 47 -33 62 0 18 21 6 30
-18z m-1395 -51 c-8 -31 -13 -39 -20 -31 -9 9 6 58 17 58 6 0 7 -11 3 -27z
m1675 2 c0 -2 -7 -2 -15 1 -9 4 -15 1 -15 -7 0 -10 -3 -10 -11 -2 -18 18 -1
35 22 23 10 -6 19 -13 19 -15z m-2205 5 c3 -5 2 -17 -3 -26 -8 -14 -10 -12
-14 10 -5 26 5 35 17 16z m1975 -4 c0 -3 -4 -8 -10 -11 -5 -3 -10 -1 -10 4 0
6 5 11 10 11 6 0 10 -2 10 -4z m634 -59 c27 -24 45 -47 39 -50 -13 -8 -135 91
-128 104 8 12 28 0 89 -54z m-2134 34 c0 -5 -9 -7 -20 -4 -11 3 -20 7 -20 9 0
2 9 4 20 4 11 0 20 -4 20 -9z m1542 -13 c10 -10 18 -24 18 -31 0 -7 9 -23 21
-35 18 -21 19 -26 8 -60 -10 -28 -14 -32 -17 -17 -4 16 -6 15 -17 -10 -13 -30
-13 -29 -14 23 -1 53 5 61 28 40 8 -7 -5 13 -28 44 -22 31 -41 60 -41 63 0 10
23 0 42 -17z m218 18 c0 -3 -4 -8 -10 -11 -5 -3 -10 -1 -10 4 0 6 5 11 10 11
6 0 10 -2 10 -4z m-1913 -33 c-21 -21 -29 -25 -39 -15 -9 9 -8 12 6 12 9 0 15
4 12 9 -6 10 9 19 34 20 9 1 5 -8 -13 -26z m1891 -5 c53 -25 68 -37 63 -49 -5
-13 -16 -11 -76 20 -38 20 -71 42 -73 49 -6 19 10 15 86 -20z m-3123 12 c3 -5
-1 -10 -10 -10 -9 0 -13 5 -10 10 3 6 8 10 10 10 2 0 7 -4 10 -10z m45 6 c0
-11 -19 -15 -25 -6 -3 5 1 10 9 10 9 0 16 -2 16 -4z m328 -3 c-15 -2 -42 -2
-60 0 -18 2 -6 4 27 4 33 0 48 -2 33 -4z m766 -18 c-4 -8 -16 -15 -28 -15 -21
1 -21 1 -2 15 25 19 37 19 30 0z m173 -7 c-3 -8 -6 -5 -6 6 -1 11 2 17 5 13 3
-3 4 -12 1 -19z m-1367 2 c0 -5 -4 -10 -10 -10 -5 0 -10 5 -10 10 0 6 5 10 10
10 6 0 10 -4 10 -10z m1465 -5 l30 -13 -47 -1 c-36 -1 -48 3 -48 14 0 18 25
19 65 0z m-985 -15 c0 -5 -11 -10 -25 -10 -14 0 -25 5 -25 10 0 6 11 10 25 10
14 0 25 -4 25 -10z m490 0 c0 -5 -5 -10 -11 -10 -5 0 -7 5 -4 10 3 6 8 10 11
10 2 0 4 -4 4 -10z m677 -17 c-4 -3 -2 -12 5 -20 6 -7 9 -15 7 -16 -38 -30
-69 -46 -69 -37 0 6 -4 8 -10 5 -5 -3 -10 -4 -10 -1 0 6 73 76 79 76 2 0 1 -3
-2 -7z m1240 -49 c-2 -2 -12 -1 -24 2 -14 4 -20 14 -20 31 l0 25 23 -28 c13
-15 23 -29 21 -30z m23 46 c-19 -13 -30 -13 -30 0 0 6 10 10 23 10 18 0 19 -2
7 -10z m-2516 -15 c-4 -8 -10 -12 -15 -9 -14 8 -10 24 6 24 9 0 12 -6 9 -15z
m1086 6 c0 -5 -7 -14 -15 -21 -13 -10 -15 -9 -15 9 0 12 6 21 15 21 8 0 15 -4
15 -9z m1867 -12 c66 -25 87 -39 76 -50 -4 -4 -40 3 -78 16 -39 14 -71 25 -72
25 -2 0 -3 7 -3 15 0 20 8 19 77 -6z m-3887 1 c0 -5 -17 -10 -37 -10 -21 0
-65 -4 -98 -9 -33 -6 -96 -12 -140 -15 l-80 -6 40 15 c25 10 89 18 170 21 72
3 132 8 134 10 7 7 11 5 11 -6z m796 -17 c-10 -10 -19 5 -10 18 6 11 8 11 12
0 2 -7 1 -15 -2 -18z m-266 -2 c0 -28 -17 -35 -29 -13 -11 21 -6 32 16 32 7 0
13 -9 13 -19z m3227 -3 c67 -25 78 -32 68 -48 -5 -7 -25 -1 -63 21 -95 53 -97
61 -5 27z m-3282 2 c11 -17 -5 -32 -21 -19 -7 6 -11 15 -8 20 7 12 21 11 29
-1z m215 -5 c10 -13 9 -15 -9 -15 -12 0 -21 6 -21 15 0 8 4 15 9 15 5 0 14 -7
21 -15z m357 9 c-3 -3 -12 -4 -19 -1 -8 3 -5 6 6 6 11 1 17 -2 13 -5z m716 -7
c-7 -11 -93 -50 -98 -45 -9 8 12 27 45 40 40 17 62 19 53 5z m-643 -17 c0 -5
-4 -10 -10 -10 -5 0 -10 5 -10 10 0 6 5 10 10 10 6 0 10 -4 10 -10z m-80 -20
c0 -5 -5 -10 -11 -10 -5 0 -7 5 -4 10 3 6 8 10 11 10 2 0 4 -4 4 -10z m1293
-12 c18 -12 34 -23 36 -25 2 -1 -2 -10 -9 -18 -8 -9 -13 -36 -13 -60 1 -26 -5
-49 -13 -56 -8 -6 -12 -15 -9 -19 3 -4 -2 -26 -9 -48 -15 -43 -19 -119 -6
-127 12 -7 4 -46 -11 -56 -11 -7 -10 -9 4 -9 23 0 17 -24 -7 -28 -10 -2 -26 4
-37 14 -16 14 -19 31 -19 93 0 138 35 361 56 361 3 0 20 -10 37 -22z m1057 5
c11 -10 20 -21 20 -26 0 -5 -7 -1 -16 7 -8 9 -20 16 -25 16 -5 0 -9 5 -9 10 0
14 7 13 30 -7z m-3310 -3 c0 -5 -4 -10 -9 -10 -6 0 -13 5 -16 10 -3 6 1 10 9
10 9 0 16 -4 16 -10z m3835 -15 c17 -7 48 -20 69 -29 27 -11 36 -20 29 -27
-10 -10 -173 46 -173 60 0 22 16 22 75 -4z m-4060 5 c-27 -5 -63 -8 -80 -8
-26 -1 -27 1 -10 8 11 5 47 8 80 8 l60 -1 -50 -7z m643 -8 c3 -9 -2 -13 -14
-10 -9 1 -19 9 -22 16 -3 9 2 13 14 10 9 -1 19 -9 22 -16z m82 8 c0 -5 -4 -10
-9 -10 -6 0 -13 5 -16 10 -3 6 1 10 9 10 9 0 16 -4 16 -10z m392 -12 c-7 -7
-12 -8 -12 -2 0 6 3 14 7 17 3 4 9 5 12 2 2 -3 -1 -11 -7 -17z m188 8 c0 -3
-4 -8 -10 -11 -5 -3 -10 -1 -10 4 0 6 5 11 10 11 6 0 10 -2 10 -4z m890 -6
c-8 -5 -19 -10 -25 -10 -5 0 -3 5 5 10 8 5 20 10 25 10 6 0 3 -5 -5 -10z
m-2065 -9 c3 -5 1 -12 -4 -15 -5 -3 -11 1 -15 9 -6 16 9 21 19 6z m559 -6 c-4
-8 -8 -15 -10 -15 -2 0 -4 7 -4 15 0 8 4 15 10 15 5 0 7 -7 4 -15z m331 5 c3
-5 2 -10 -4 -10 -5 0 -13 5 -16 10 -3 6 -2 10 4 10 5 0 13 -4 16 -10z m-525
-10 c0 -5 -9 -10 -21 -10 -11 0 -17 5 -14 10 3 6 13 10 21 10 8 0 14 -4 14
-10z m720 0 c0 -5 -2 -10 -4 -10 -3 0 -8 5 -11 10 -3 6 -1 10 4 10 6 0 11 -4
11 -10z m1695 -1 c4 -5 -3 -8 -14 -6 -28 4 -34 12 -11 14 11 1 22 -2 25 -8z
m314 -12 c-18 -17 -28 -21 -38 -13 -11 8 -8 13 15 23 43 18 50 16 23 -10z
m726 13 c3 -5 -3 -10 -14 -10 -11 0 -23 5 -26 10 -3 6 3 10 14 10 11 0 23 -4
26 -10z m-3505 -4 c0 -3 -4 -8 -10 -11 -5 -3 -10 -1 -10 4 0 6 5 11 10 11 6 0
10 -2 10 -4z m-220 -15 c0 -5 -7 -12 -16 -15 -22 -9 -24 -8 -24 9 0 8 9 15 20
15 11 0 20 -4 20 -9z m165 -1 c-3 -5 -13 -10 -21 -10 -8 0 -14 5 -14 10 0 6 9
10 21 10 11 0 17 -4 14 -10z m265 -34 c-12 -12 -15 -8 -25 22 -7 23 -6 23 14
6 13 -12 17 -22 11 -28z m65 34 c-3 -5 -10 -10 -16 -10 -5 0 -9 5 -9 10 0 6 7
10 16 10 8 0 12 -4 9 -10z m3199 -10 c21 13 21 12 3 -8 -17 -18 -21 -19 -45
-6 -15 8 -33 14 -40 14 -7 0 -10 4 -7 10 4 6 18 4 37 -6 26 -14 35 -14 52 -4z
m-3647 4 c-3 -3 -12 -4 -19 -1 -8 3 -5 6 6 6 11 1 17 -2 13 -5z m863 -4 c0 -5
-4 -10 -10 -10 -5 0 -10 5 -10 10 0 6 5 10 10 10 6 0 10 -4 10 -10z m-662 -9
c11 -7 10 -10 -3 -15 -20 -7 -38 1 -30 15 7 11 16 11 33 0z m282 -1 c0 -5 -5
-10 -11 -10 -5 0 -7 5 -4 10 3 6 8 10 11 10 2 0 4 -4 4 -10z m330 1 c0 -6 -4
-13 -10 -16 -5 -3 -10 1 -10 9 0 9 5 16 10 16 6 0 10 -4 10 -9z m489 5 c-2 -2
-71 -11 -154 -20 -82 -10 -157 -20 -165 -23 -8 -4 -22 -7 -30 -8 -47 -5 -75
-23 -125 -81 -45 -51 -63 -64 -93 -69 -20 -3 -49 -8 -64 -10 -16 -3 -28 -1
-28 4 0 5 23 11 51 15 35 5 58 14 71 29 11 12 16 16 12 8 -5 -9 -3 -12 5 -7 6
4 9 11 6 16 -3 5 11 32 31 59 l37 49 116 12 c64 7 143 16 176 20 66 8 161 12
154 6z m1776 -110 c-3 -51 -1 -84 7 -93 8 -11 6 -19 -12 -38 -13 -14 -19 -25
-13 -25 6 0 18 -12 28 -26 16 -24 16 -26 -1 -38 -19 -15 -11 -36 14 -36 15 0
15 -2 2 -10 -10 -6 -11 -10 -2 -10 6 0 12 -9 12 -20 0 -11 -5 -20 -11 -20 -5
0 -7 4 -4 10 3 6 -1 7 -9 4 -24 -9 -19 -24 8 -24 31 0 40 -14 22 -30 -19 -15
-56 3 -56 28 0 9 -14 58 -31 107 -39 115 -50 242 -25 280 20 31 58 48 68 31 4
-6 5 -47 3 -90z m-3252 87 c-7 -2 -21 -2 -30 0 -10 3 -4 5 12 5 17 0 24 -2 18
-5z m-163 -38 c0 -10 -16 -4 -40 16 l-25 20 33 -16 c17 -8 32 -18 32 -20z
m220 5 c11 0 19 3 18 8 -3 8 6 12 25 12 25 -1 -28 -30 -55 -30 -22 0 -28 4
-28 23 1 20 2 20 11 5 5 -10 19 -18 29 -18z m3380 -3 c13 -9 18 -17 11 -17
-18 0 -51 29 -51 44 0 8 3 8 8 0 4 -5 18 -18 32 -27z m168 8 c-6 -14 -13 -23
-15 -21 -5 5 15 46 22 46 3 0 -1 -11 -7 -25z m-3421 -1 c-3 -3 -12 -4 -19 -1
-8 3 -5 6 6 6 11 1 17 -2 13 -5z m673 -30 c0 -8 -7 -14 -15 -14 -15 0 -21 21
-9 33 10 9 24 -2 24 -19z m1973 12 c3 -8 -1 -17 -9 -20 -9 -3 -12 -1 -9 4 3 6
1 10 -4 10 -6 0 -11 -7 -11 -15 0 -8 -4 -15 -10 -15 -17 0 -11 18 12 34 27 19
25 19 31 2z m822 4 c3 -5 -3 -10 -15 -10 -12 0 -18 5 -15 10 3 6 10 10 15 10
5 0 12 -4 15 -10z m-3700 -62 c15 -16 -67 28 -90 47 -11 9 3 5 30 -10 28 -15
55 -32 60 -37z m249 54 c2 -4 -4 -8 -15 -8 -10 0 -19 4 -19 8 0 10 27 10 34 0z
m578 -129 c33 -5 35 -13 4 -13 -20 0 -44 16 -87 56 l-59 57 -72 -7 c-40 -4
-181 -21 -312 -37 -187 -24 -241 -27 -247 -18 -9 16 -23 -53 -16 -81 3 -11 1
-20 -4 -20 -5 0 -10 19 -10 43 -1 23 -3 52 -4 65 -2 20 2 22 51 22 29 0 162
11 296 25 134 13 261 26 283 28 37 3 44 -1 98 -57 32 -33 68 -61 79 -63z
m1228 112 c-7 -9 -15 -13 -17 -11 -7 7 7 26 19 26 6 0 6 -6 -2 -15z m1406 -12
c-7 -7 -26 7 -26 19 0 6 6 6 15 -2 9 -7 13 -15 11 -17z m639 17 c3 -5 2 -10
-4 -10 -5 0 -13 5 -16 10 -3 6 -2 10 4 10 5 0 13 -4 16 -10z m-89 -13 c4 -4
-2 -7 -14 -7 -11 0 -24 5 -27 10 -7 11 30 8 41 -3z m-3171 -8 c11 -16 1 -19
-13 -3 -7 8 -8 14 -3 14 5 0 13 -5 16 -11z m2712 -4 c4 -4 2 -5 -4 -1 -7 4
-13 2 -13 -3 0 -6 15 -11 33 -11 22 0 28 3 18 9 -7 5 -9 11 -4 14 19 12 34
-10 27 -38 -6 -23 -8 -25 -16 -11 -13 23 -48 21 -48 -4 0 -10 7 -23 16 -28 14
-8 13 -10 -5 -15 -17 -4 -24 1 -35 26 -7 18 -10 36 -5 41 4 5 5 14 2 21 -5 15
21 15 34 0z m183 -11 c0 -8 -4 -12 -10 -9 -5 3 -10 10 -10 16 0 5 5 9 10 9 6
0 10 -7 10 -16z m-772 -25 c-7 -5 -24 -9 -37 -9 -23 0 -24 1 -6 14 10 7 27 11
38 8 14 -4 16 -7 5 -13z m801 -64 l0 -40 -15 40 c-16 43 -11 82 6 55 6 -8 9
-33 9 -55z m-603 -79 c24 -49 9 -40 -27 16 -19 29 -47 69 -62 88 -16 19 -6 10
22 -20 29 -30 59 -68 67 -84z m288 92 c-3 -5 2 -11 10 -14 18 -7 12 -24 -8
-24 -16 0 -27 35 -19 57 5 12 7 12 14 2 4 -7 5 -17 3 -21z m-544 12 c0 -5 -2
-10 -4 -10 -3 0 -8 5 -11 10 -3 6 -1 10 4 10 6 0 11 -4 11 -10z m2058 1 c11
-7 11 -9 -1 -14 -9 -3 -18 1 -21 9 -6 16 2 18 22 5z m-960 -41 c21 0 8 -25
-14 -27 -24 -4 -69 31 -60 45 4 7 15 6 34 -4 15 -7 33 -14 40 -14z m649 9 c19
-12 32 -23 29 -26 -5 -6 -63 24 -71 37 -10 16 5 12 42 -11z m-2916 -6 c13 -16
12 -17 -3 -4 -10 7 -18 15 -18 17 0 8 8 3 21 -13z m-757 -4 c25 -12 42 -55 37
-91 -1 -9 3 -36 9 -58 16 -61 5 -60 -15 0 -12 37 -14 55 -7 62 8 8 7 19 -4 39
-17 33 -46 51 -68 43 -19 -7 -21 -20 -3 -27 6 -3 2 -6 -10 -6 -25 -1 -30 18
-11 37 15 15 40 15 72 1z m2136 -54 c17 -25 29 -49 25 -54 -3 -5 1 -12 7 -14
7 -3 3 -6 -9 -6 -13 -1 -23 4 -23 9 0 6 -7 10 -16 10 -8 0 -12 5 -9 10 7 11
-12 40 -26 40 -4 0 -15 -7 -23 -16 -10 -10 -16 -11 -16 -4 0 7 -7 9 -16 6 -8
-3 -12 -2 -9 4 3 6 12 10 19 10 7 0 23 11 36 25 13 14 25 25 26 25 2 0 17 -20
34 -45z m1365 35 c-3 -5 -11 -10 -16 -10 -6 0 -7 5 -4 10 3 6 11 10 16 10 6 0
7 -4 4 -10z m-3610 -10 c3 -5 2 -10 -4 -10 -5 0 -13 5 -16 10 -3 6 -2 10 4 10
5 0 13 -4 16 -10z m3675 6 c0 -3 -4 -8 -10 -11 -5 -3 -10 -1 -10 4 0 6 5 11
10 11 6 0 10 -2 10 -4z m-886 -31 c-5 -11 1 -15 26 -15 18 0 29 4 25 10 -3 6
1 10 9 10 9 0 16 -4 16 -9 0 -5 2 -16 5 -23 5 -12 -3 -13 -42 -8 -26 4 -56 11
-65 15 -27 11 -22 35 7 35 18 0 23 -4 19 -15z m-2750 -27 c3 -17 3 -35 -1 -39
-5 -5 -8 2 -9 14 0 12 -4 30 -8 40 -5 10 -4 17 2 17 5 0 12 -14 16 -32z m136
-53 c0 -5 -5 -3 -10 5 -5 8 -10 20 -10 25 0 6 5 3 10 -5 5 -8 10 -19 10 -25z
m1966 -37 c-7 -5 -5 -13 6 -24 22 -22 52 -11 45 16 -3 13 0 20 9 20 17 0 18
-32 2 -48 -15 -15 -54 -16 -63 -2 -4 6 -9 8 -13 6 -4 -2 -7 13 -7 33 -1 33 1
35 15 21 11 -10 13 -17 6 -22z m-182 7 c3 -8 1 -15 -4 -15 -6 0 -10 7 -10 15
0 8 2 15 4 15 2 0 6 -7 10 -15z m-1771 -15 c3 -11 1 -20 -4 -20 -5 0 -9 9 -9
20 0 11 2 20 4 20 2 0 6 -9 9 -20z m3213 -32 c-17 -10 -36 -3 -36 13 0 6 5 7
10 4 6 -3 10 -1 10 6 0 8 4 8 16 -2 14 -11 14 -13 0 -21z m-1436 -38 c0 -5
-15 -9 -32 -9 l-33 1 30 8 c17 4 31 8 33 9 1 0 2 -3 2 -9z m-3094 -84 c0 -13
-4 -22 -8 -19 -5 2 -8 -1 -8 -8 0 -7 -2 -10 -5 -7 -6 5 11 58 19 58 2 0 3 -11
2 -24z m1912 -36 c10 -17 10 -20 -3 -20 -8 0 -15 2 -15 4 0 2 -3 11 -6 20 -9
23 9 20 24 -4z m-1413 -140 c1 -41 -2 -82 -6 -91 -5 -9 -5 -19 -2 -23 12 -12
14 -56 3 -56 -7 0 -9 -8 -5 -20 4 -11 2 -20 -4 -20 -6 0 -12 6 -12 13 -5 59
-8 97 -8 126 0 18 -4 38 -9 45 -5 6 -7 33 -4 59 4 42 7 48 25 45 19 -3 21 -10
22 -78z m-658 44 c-3 -3 -12 -4 -19 -1 -8 3 -5 6 6 6 11 1 17 -2 13 -5z m148
-4 c3 -5 1 -10 -4 -10 -6 0 -11 5 -11 10 0 6 2 10 4 10 3 0 8 -4 11 -10z
m-250 -30 c-3 -5 -13 -10 -21 -10 -8 0 -14 5 -14 10 0 6 9 10 21 10 11 0 17
-4 14 -10z m612 -16 c9 4 13 1 10 -6 -2 -7 -10 -12 -16 -10 -6 1 -11 -2 -11
-8 0 -5 -5 -10 -11 -10 -23 0 -36 -33 -31 -77 3 -25 0 -49 -7 -57 -8 -10 -9
-16 -1 -21 14 -9 13 -25 -3 -25 -19 0 -40 47 -26 56 11 6 8 41 -7 93 -5 18 -4
22 5 16 10 -5 11 -2 6 15 -6 20 -4 21 27 18 29 -3 34 0 37 22 3 19 5 21 9 7 2
-12 9 -16 19 -13z m-737 -15 c0 -5 -7 -9 -15 -9 -15 0 -20 12 -9 23 8 8 24 -1
24 -14z m190 -24 c-7 -8 -16 -15 -20 -15 -3 0 -7 7 -7 15 0 8 9 15 20 15 16 0
17 -3 7 -15z m168 -3 c3 -9 -2 -13 -14 -10 -9 1 -19 9 -22 16 -3 9 2 13 14 10
9 -1 19 -9 22 -16z m160 -20 c3 -9 -2 -13 -14 -10 -9 1 -19 9 -22 16 -3 9 2
13 14 10 9 -1 19 -9 22 -16z m-381 2 c-3 -3 -12 -4 -19 -1 -8 3 -5 6 6 6 11 1
17 -2 13 -5z m300 -10 c-3 -3 -12 -4 -19 -1 -8 3 -5 6 6 6 11 1 17 -2 13 -5z
m1453 -4 c0 -5 -4 -10 -10 -10 -5 0 -9 -5 -7 -11 1 -6 -3 -13 -9 -16 -7 -2
-11 7 -11 22 0 18 5 25 18 25 11 0 19 -4 19 -10z m602 -30 c29 -11 64 -29 78
-40 21 -17 23 -21 10 -30 -8 -5 -20 -8 -27 -5 -6 2 -17 -3 -23 -10 -7 -8 -17
-12 -23 -8 -5 3 -7 2 -4 -4 9 -14 -42 -60 -51 -48 -4 6 -28 11 -55 11 -34 1
-54 7 -70 22 -14 13 -36 22 -54 22 -99 0 -79 60 31 95 61 19 129 18 188 -5z
m-2217 0 c-3 -5 -10 -10 -16 -10 -5 0 -9 5 -9 10 0 6 7 10 16 10 8 0 12 -4 9
-10z m62 -15 c0 -8 -6 -15 -13 -15 -15 0 -26 15 -17 24 12 11 30 6 30 -9z
m1453 1 c0 -11 -19 -15 -25 -6 -3 5 1 10 9 10 9 0 16 -2 16 -4z m250 -6 c0 -5
-4 -10 -10 -10 -5 0 -10 5 -10 10 0 6 5 10 10 10 6 0 10 -4 10 -10z m-1603
-16 c-3 -3 -12 -4 -19 -1 -8 3 -5 6 6 6 11 1 17 -2 13 -5z m518 -33 c1 -14 6
-26 12 -28 6 -2 19 -10 29 -18 18 -14 17 -14 -8 -5 -27 9 -29 8 -28 -17 1 -5
-16 -10 -36 -13 -43 -6 -55 -25 -24 -35 16 -5 19 -10 11 -18 -7 -7 -17 -3 -34
15 -33 36 -39 55 -19 63 9 3 18 1 20 -4 6 -17 29 -13 36 5 3 9 6 31 6 51 0 27
4 34 17 31 9 -2 17 -14 18 -27z m-725 5 c0 -3 -4 -8 -10 -11 -5 -3 -10 -1 -10
4 0 6 5 11 10 11 6 0 10 -2 10 -4z m2425 -6 c3 -5 18 -10 33 -10 15 0 35 -7
45 -14 10 -8 27 -12 38 -9 11 3 19 2 18 -3 -4 -21 2 -26 16 -14 8 7 15 8 15 2
0 -5 -6 -15 -14 -22 -8 -6 -13 -17 -10 -24 3 -9 -8 -15 -35 -20 -43 -7 -155
29 -145 46 3 5 -2 18 -11 28 -10 11 -15 26 -12 35 7 17 52 21 62 5z m-60 -60
c3 -5 1 -10 -4 -10 -6 0 -11 5 -11 10 0 6 2 10 4 10 3 0 8 -4 11 -10z m-1945
-10 c8 -5 11 -12 7 -17 -5 -4 -11 -3 -15 3 -4 6 -14 14 -22 17 -13 5 -13 5 0
6 8 0 22 -3 30 -9z m-120 -45 c0 -8 -7 -15 -15 -15 -8 0 -15 7 -15 15 0 8 7
15 15 15 8 0 15 -7 15 -15z m3230 -50 c0 -8 10 -10 26 -7 18 3 25 1 23 -9 -1
-8 1 -22 5 -31 10 -22 -27 -62 -60 -65 -32 -2 -40 18 -36 97 4 60 4 61 23 44
10 -9 19 -23 19 -29z m185 -19 c13 -10 28 -11 49 -5 20 6 32 5 34 -1 5 -14 62
-12 62 2 0 8 6 6 17 -4 13 -14 14 -20 4 -32 -8 -10 -9 -15 -1 -18 6 -2 8 -11
5 -20 -7 -18 -72 -31 -113 -22 -88 19 -92 23 -92 82 0 16 -6 22 -23 21 -21 0
-21 -1 -2 -9 l20 -8 -20 -8 c-11 -4 -23 -12 -27 -17 -11 -18 -37 17 -26 36 11
21 86 23 113 3z"/>
<path d="M3527 4549 c4 -13 8 -18 11 -10 2 7 -1 18 -6 23 -8 8 -9 4 -5 -13z"/>
<path d="M2980 4485 c-7 -9 -11 -17 -9 -20 3 -2 10 5 17 15 14 24 10 26 -8 5z"/>
<path d="M3070 4355 c-33 -61 3 -205 62 -246 16 -12 31 -19 34 -16 11 11 6 64
-11 107 -9 25 -24 75 -33 113 -18 72 -31 82 -52 42z"/>
<path d="M3020 4097 c11 -18 20 -40 20 -49 0 -10 5 -18 10 -18 14 0 12 53 -2
72 -7 8 -21 18 -30 21 -15 5 -15 3 2 -26z"/>
<path d="M3291 4092 c-27 -4 -71 -47 -71 -70 0 -19 39 -82 51 -82 5 0 9 7 9
16 0 12 7 14 31 9 41 -9 36 14 -8 35 -29 14 -50 47 -37 59 2 2 20 -11 40 -30
32 -31 36 -32 45 -16 13 23 27 22 51 -5 16 -19 19 -20 14 -5 -3 10 -6 25 -6
33 0 8 -5 14 -10 14 -6 0 -27 10 -48 23 -20 12 -48 21 -61 19z"/>
<path d="M3420 4035 c0 -8 5 -15 10 -15 6 0 10 7 10 15 0 8 -4 15 -10 15 -5 0
-10 -7 -10 -15z"/>
<path d="M3158 4033 c7 -3 16 -2 19 1 4 3 -2 6 -13 5 -11 0 -14 -3 -6 -6z"/>
<path d="M2841 3984 c-1 -12 6 -28 16 -35 15 -13 15 -12 6 6 -6 11 -13 27 -16
35 -4 10 -6 8 -6 -6z"/>
<path d="M3846 4197 c3 -10 9 -15 12 -12 3 3 0 11 -7 18 -10 9 -11 8 -5 -6z"/>
<path d="M3680 3599 c0 -11 5 -17 10 -14 6 3 10 13 10 21 0 8 -4 14 -10 14 -5
0 -10 -9 -10 -21z"/>
<path d="M4488 1558 c9 -9 15 -9 24 0 9 9 7 12 -12 12 -19 0 -21 -3 -12 -12z"/>
<path d="M1157 1991 c-3 -12 -1 -21 3 -21 15 0 23 21 12 32 -6 6 -11 2 -15
-11z"/>
<path d="M996 1985 c-3 -8 -1 -15 3 -15 5 0 11 7 15 15 3 8 1 15 -3 15 -5 0
-11 -7 -15 -15z"/>
<path d="M3330 2050 c0 -5 5 -10 10 -10 6 0 10 5 10 10 0 6 -4 10 -10 10 -5 0
-10 -4 -10 -10z"/>
<path d="M3230 2031 c0 -6 5 -13 10 -16 6 -3 10 1 10 9 0 9 -4 16 -10 16 -5 0
-10 -4 -10 -9z"/>
<path d="M3320 2011 c0 -12 5 -21 10 -21 6 0 10 6 10 14 0 8 -4 18 -10 21 -5
3 -10 -3 -10 -14z"/>
<path d="M3150 1980 c6 -11 15 -20 21 -20 6 0 6 7 -1 20 -6 11 -15 20 -21 20
-6 0 -6 -7 1 -20z"/>
<path d="M2226 1603 c-4 -9 -2 -21 3 -26 15 -15 41 0 41 23 0 25 -35 28 -44 3z"/>
<path d="M4505 950 c3 -5 8 -10 11 -10 2 0 4 5 4 10 0 6 -5 10 -11 10 -5 0 -7
-4 -4 -10z"/>
</g>
</svg>
